<?xml version="1.0" standalone="no"?>
<!DOCTYPE svg PUBLIC "-//W3C//DTD SVG 20010904//EN"
 "http://www.w3.org/TR/2001/REC-SVG-20010904/DTD/svg10.dtd">
<svg version="1.0" xmlns="http://www.w3.org/2000/svg"
 width="44.000000pt" height="48.000000pt" viewBox="0 0 44.000000 48.000000"
 preserveAspectRatio="xMidYMid meet">

<g transform="translate(0.000000,48.000000) scale(0.100000,-0.100000)"
fill="#000000" stroke="none">
<path d="M42 424 l-34 -45 1 -172 c2 -222 -14 -207 212 -207 223 0 209 -14
209 206 l0 166 -36 49 -36 49 -141 0 -142 -1 -33 -45z m312 -6 c9 -12 16 -26
16 -30 0 -5 -70 -8 -155 -8 -85 0 -155 3 -155 6 0 3 8 16 18 29 16 23 22 24
139 25 115 0 123 -1 137 -22z m46 -218 c0 -137 -2 -150 -19 -160 -21 -11 -298
-14 -325 -4 -14 5 -16 29 -16 160 l0 154 180 0 180 0 0 -150z"/>
<path d="M117 293 c-11 -18 7 -65 35 -88 59 -49 146 -23 164 50 11 44 -12 53
-30 11 -29 -70 -110 -74 -132 -6 -11 34 -28 48 -37 33z"/>
</g>
</svg>
